:SAMPLES-PER-SECOND 30
:FULLY-SPECIFIED
:DEGREES
382
root  -72.8356 40.4572 1.18628 176.474 -82.5888 176.695
RightUpLeg  1.51633 -7.49747 -1.50471
RightLeg  13.8501 13.6171 2.24013
RightFoot  -7.75366 0.039665 -2.92694
RightToes  1.45519e-009 0 -3.6325e-017
Spine  12.844 -0.0200457 4.28794
Spine1  12.5143 0.9519 -0.536218
HEad  -39.6182 -4.81212 -6.44074
LeftShoulder1  0.415518 2.15533 -24.5572
LeftArm  -10.1007 18.6945 -42.9061
LeftForeArm  29.6072 -12.9329 -4.92132
LeftHand  -0.535633 14.5801 -5.52831
RightShoulder  -0.436628 -4.9241 23.86
RightArm  22.5183 1.04665 53.2119
RightForeArm  5.79196 22.3935 4.66391
RightHand  -0.265824 6.56349 -2.92619
LeftUpLeg  -6.03572 -1.86634 5.39215
LeftLeg  9.17896 -4.98522 0.976555
LeftFoot  1.98533 0.314711 -2.76889
LeftToes  -2.53752e-010 -2.07034e-011 -2.70101e-011
383
root  -73.3081 40.4342 1.36475 175.268 -80.0493 177.785
RightUpLeg  1.98485 -7.04265 -1.55188
RightLeg  14.2121 15.717 2.26984
RightFoot  -8.61132 -0.00177838 -2.37222
RightToes  1.45519e-009 0 -3.6325e-017
Spine  12.5674 -0.0352255 3.13505
Spine1  13.1357 1.0108 -0.992775
HEad  -40.1865 -5.70725 -5.69943
LeftShoulder1  0.421851 2.09795 -23.7088
LeftArm  -11.3813 19.4714 -42.0448
LeftForeArm  31.2984 -9.55698 -5.00692
LeftHand  -0.356019 13.1191 -4.11085
RightShoulder  -0.494371 -5.08537 24.3407
RightArm  21.6316 0.675029 52.941
RightForeArm  5.22136 19.4086 5.04633
RightHand  -0.277572 5.74694 -3.18229
LeftUpLeg  -5.84682 -2.04898 5.82836
LeftLeg  11.5675 -2.18716 0.516697
LeftFoot  0.311772 0.193152 -1.92726
LeftToes  -2.53752e-010 -2.07034e-011 -2.70101e-011
384
root  -73.7925 40.3742 1.53514 172.557 -77.6235 -179.349
RightUpLeg  2.23882 -6.23773 -1.12868
RightLeg  14.5269 17.1689 2.33137
RightFoot  -9.40137 -0.0286238 -2.0879
RightToes  1.45519e-009 0 -3.6325e-017
Spine  12.1129 -0.455125 2.93034
Spine1  13.3437 1.08213 -2.7096
HEad  -40.4191 -5.65744 -5.42293
LeftShoulder1  0.391106 2.13395 -22.1844
LeftArm  -11.2627 21.1001 -41.3797
LeftForeArm  34.1666 -8.98693 -4.98142
LeftHand  -0.467896 12.9064 -5.88389
RightShoulder  -0.602643 -5.35739 25.7781
RightArm  21.0369 0.388632 51.9356
RightForeArm  7.32658 17.4141 5.57753
RightHand  -0.128535 3.61433 -1.94093
LeftUpLeg  -5.8339 1.24304 6.92808
LeftLeg  13.8487 -2.96879 -0.418608
LeftFoot  -1.98318 0.213028 -2.47473
LeftToes  -2.53752e-010 -2.07034e-011 -2.70101e-011
385
root  -74.3006 40.3124 1.68898 170.71 -75.3653 -177.628
RightUpLeg  2.73869 -4.53512 -0.550276
RightLeg  14.9681 17.5893 2.0197
RightFoot  -10.2797 -0.0514789 -1.85824
RightToes  1.45519e-009 0 -3.6325e-017
Spine  11.5444 -0.497957 1.32555
Spine1  13.829 0.647617 -1.85578
HEad  -39.5677 -5.27561 -7.20117
LeftShoulder1  0.345996 2.31104 -22.6487
LeftArm  -10.6929 22.331 -40.2444
LeftForeArm  36.7173 -9.61496 -5.14886
LeftHand  -0.525301 12.6944 -6.93378
RightShoulder  -0.522769 -5.14336 25.0598
RightArm  19.8273 -0.766796 51.5582
RightForeArm  8.38125 16.0745 5.97908
RightHand  -0.109827 4.42258 -1.58126
LeftUpLeg  -5.28433 4.98309 7.81561
LeftLeg  15.8304 -4.50849 -1.13492
LeftFoot  -4.14842 0.221571 -3.10764
LeftToes  -2.53752e-010 -2.07034e-011 -2.70101e-011
386
root  -74.8007 40.2201 1.89867 171.195 -73.1773 -178.687
RightUpLeg  3.08343 -1.15119 -0.583219
RightLeg  16.4466 16.5211 1.94585
RightFoot  -11.6919 -0.0833973 -1.26007
RightToes  1.45519e-009 0 -3.6325e-017
Spine  11.4999 -0.739289 0.438562
Spine1  14.049 0.639571 -2.86263
HEad  -39.6118 -5.37591 -8.05254
LeftShoulder1  0.32238 2.38404 -22.4529
LeftArm  -9.75941 22.5034 -39.4045
LeftForeArm  37.0127 -9.81733 -5.47562
LeftHand  -0.566635 12.948 -7.29937
RightShoulder  -0.65363 -5.49069 26.2124
RightArm  21.1201 -0.962021 49.7152
RightForeArm  8.29497 15.4379 6.39824
RightHand  -0.136526 4.22093 -1.92733
LeftUpLeg  -4.22616 6.96802 7.6851
LeftLeg  17.4705 -4.36878 -1.21766
LeftFoot  -6.01135 0.169633 -2.86209
LeftToes  -2.53752e-010 -2.07034e-011 -2.70101e-011
387
root  -75.2358 40.1108 2.08337 171.432 -71.5834 -179.659
RightUpLeg  3.39917 5.03739 -0.455006
RightLeg  18.1689 12.0009 2.1767
RightFoot  -12.9217 -0.10093 -0.981363
RightToes  1.45519e-009 0 -3.6325e-017
Spine  12.0301 -1.01652 -0.672124
Spine1  13.942 0.481577 -3.91314
HEad  -40.3678 -5.88059 -8.58626
LeftShoulder1  0.374922 2.1682 -21.6347
LeftArm  -9.63645 21.5838 -39.7537
LeftForeArm  36.59 -9.10735 -5.65099
LeftHand  -0.521624 12.873 -6.68826
RightShoulder  -0.677908 -5.54747 26.4887
RightArm  20.8861 -2.20221 48.8316
RightForeArm  8.79626 15.5838 6.26989
RightHand  -0.134567 4.82088 -1.82064
LeftUpLeg  -3.3441 6.17477 7.04173
LeftLeg  19.1041 -2.065 -0.464979
LeftFoot  -7.3816 0.129262 -2.47663
LeftToes  -2.53752e-010 -2.07034e-011 -2.70101e-011
388
root  -75.6212 39.9471 2.30067 171.808 -69.7762 179.171
RightUpLeg  3.13969 10.677 -0.700328
RightLeg  20.8695 8.02196 3.054
RightFoot  -14.2386 -0.11146 -0.601039
RightToes  1.45519e-009 0 -3.6325e-017
Spine  12.7837 -0.919441 -3.06977
Spine1  13.8408 0.0179278 -3.21001
HEad  -40.7324 -5.08605 -10.3335
LeftShoulder1  0.378626 2.11344 -20.8077
LeftArm  -9.36314 19.559 -41.2055
LeftForeArm  36.0704 -7.84072 -5.98455
LeftHand  -0.393171 12.6255 -5.01396
RightShoulder  -0.630676 -5.41912 26.2257
RightArm  20.8498 -2.9788 48.2593
RightForeArm  8.41558 15.6322 6.2506
RightHand  -0.180904 5.52395 -2.24275
LeftUpLeg  -2.80333 5.50239 6.17613
LeftLeg  21.3579 0.456346 0.523647
LeftFoot  -8.97959 0.0981183 -2.05898
LeftToes  -2.53752e-010 -2.07034e-011 -2.70101e-011
389
root  -75.9827 39.7294 2.5137 171.708 -67.6377 178.494
RightUpLeg  1.9008 10.7834 -1.48229
RightLeg  25.2178 8.68353 4.2508
RightFoot  -15.3205 -0.102904 0.018615
RightToes  1.45519e-009 0 -3.6325e-017
Spine  13.2703 -0.959681 -3.26147
Spine1  13.8555 0.45595 -5.31423
HEad  -40.5906 -4.69653 -10.7336
LeftShoulder1  0.502218 1.55167 -19.2269
LeftArm  -7.70925 15.792 -42.2676
LeftForeArm  35.1117 -5.86957 -6.85246
LeftHand  -0.262419 12.8718 -2.80673
RightShoulder  -0.681248 -5.52971 26.9057
RightArm  21.0263 -3.48442 47.8196
RightForeArm  7.66586 15.6856 6.27162
RightHand  -0.190331 5.22024 -2.3899
LeftUpLeg  -2.44694 6.29411 5.72513
LeftLeg  24.0596 1.70448 1.16779
LeftFoot  -10.6723 0.0686831 -1.20462
LeftToes  -2.53752e-010 -2.07034e-011 -2.70101e-011
390
root  -76.313 39.4619 2.71564 171.641 -65.2051 177.879
RightUpLeg  -0.474133 8.30528 -2.77707
RightLeg  30.8684 9.11993 5.62437
RightFoot  -15.7841 -0.0485159 1.48138
RightToes  1.45519e-009 0 -3.6325e-017
Spine  13.8746 -1.03376 -3.51802
Spine1  13.4351 0.828972 -7.73848
HEad  -40.4294 -3.44524 -10.8863
LeftShoulder1  0.563336 1.19095 -17.6542
LeftArm  -7.87276 12.1852 -43.4179
LeftForeArm  36.3943 -5.40438 -6.85133
LeftHand  -0.158876 12.105 -1.5377
RightShoulder  -0.774152 -5.72856 28.1967
RightArm  21.7146 -3.25299 47.4312
RightForeArm  7.41207 15.7234 6.36386
RightHand  -0.203501 5.13288 -2.5448
LeftUpLeg  -2.27299 7.76737 5.43727
LeftLeg  26.9364 2.59707 1.77865
LeftFoot  -12.6672 0.0634705 -1.27082
LeftToes  -2.53752e-010 -2.07034e-011 -2.70101e-011
391
root  -76.665 39.1589 2.96117 172.176 -62.7952 176.377
RightUpLeg  -3.22782 4.21803 -4.83412
RightLeg  37.3818 8.5104 6.64936
RightFoot  -15.5004 0.0552036 4.50153
RightToes  1.45519e-009 0 -3.6325e-017
Spine  14.3681 -0.670415 -5.4744
Spine1  13.6257 0.465142 -6.64722
HEad  -40.9028 -2.57742 -12.849
LeftShoulder1  0.508424 1.55291 -19.6831
LeftArm  -6.62712 6.6527 -42.3251
LeftForeArm  38.1252 -5.33428 -7.56568
LeftHand  -0.233458 12.6354 -2.53575
RightShoulder  -0.596559 -5.28885 26.4988
RightArm  21.2109 -3.32003 48.554
RightForeArm  8.38682 16.0914 6.10284
RightHand  -0.129715 4.97724 -1.75525
LeftUpLeg  -1.82071 9.54507 4.72952
LeftLeg  29.6311 3.19729 2.31834
LeftFoot  -14.7503 0.0711034 -0.545849
LeftToes  -2.53752e-010 -2.07034e-011 -2.70101e-011
392
root  -76.9517 38.8398 3.21348 172.56 -60.784 175.517
RightUpLeg  -6.93142 -0.663675 -6.2488
RightLeg  44.0276 5.96053 5.82061
RightFoot  -13.6877 0.0590015 7.51168
RightToes  1.45519e-009 0 -3.6325e-017
Spine  14.8996 -0.329609 -7.69585
Spine1  13.3077 -0.372539 -3.8037
HEad  -41.0392 -2.0709 -15.0787
LeftShoulder1  0.394727 2.13719 -22.3917
LeftArm  -5.23259 0.387965 -41.1225
LeftForeArm  37.0867 -4.67753 -8.38009
LeftHand  -0.200998 12.8997 -1.93516
RightShoulder  -0.353241 -4.64839 23.9931
RightArm  20.3084 -3.6135 50.3565
RightForeArm  8.31372 16.5278 5.82804
RightHand  -0.130876 4.81498 -1.7931
LeftUpLeg  -2.09161 11.4904 4.27071
LeftLeg  32.3928 3.31655 2.62965
LeftFoot  -16.6543 0.0759167 -0.525763
LeftToes  -2.53752e-010 -2.07034e-011 -2.70101e-011
393
root  -77.2643 38.5557 3.4157 171.574 -58.5112 175.422
RightUpLeg  -9.76704 -5.4393 -6.51839
RightLeg  49.5837 2.40742 2.65082
RightFoot  -10.4531 -0.126512 8.03044
RightToes  1.45519e-009 0 -3.6325e-017
Spine  15.6881 -0.301173 -7.55436
Spine1  13.3916 -0.19856 -4.39567
HEad  -41.1007 -1.91684 -15.0845
LeftShoulder1  0.407412 2.04452 -21.5906
LeftArm  -4.8754 -4.95936 -42.0099
LeftForeArm  35.4802 -4.44326 -8.58348
LeftHand  -0.145492 12.2114 -1.25143
RightShoulder  -0.411882 -4.8088 24.5881
RightArm  20.3733 -3.26124 50.9927
RightForeArm  7.96357 17.5024 5.47183
RightHand  -0.141992 4.10673 -2.00925
LeftUpLeg  -1.27315 13.4149 4.48927
LeftLeg  34.7413 3.51899 2.99269
LeftFoot  -18.5686 0.0658812 -0.696458
LeftToes  -2.53752e-010 -2.07034e-011 -2.70101e-011
394
root  -77.5754 38.2911 3.55422 169.95 -56.2339 176.178
RightUpLeg  -12.2088 -10.4036 -5.51366
RightLeg  53.2817 -0.890608 -1.62676
RightFoot  -8.39274 -0.215673 6.0093
RightToes  1.45519e-009 0 -3.6325e-017
Spine  16.1966 -0.395966 -6.23252
Spine1  13.7098 0.2812 -5.5939
HEad  -41.0805 -2.33921 -14.8567
LeftShoulder1  0.509579 1.57556 -19.8944
LeftArm  -5.62253 -9.34034 -43.7073
LeftForeArm  33.6694 -5.10458 -8.1711
LeftHand  -0.0255732 11.5606 0.663517
RightShoulder  -0.50317 -5.07557 25.2017
RightArm  20.2882 -3.21954 52.096
RightForeArm  7.39953 18.566 5.13559
RightHand  -0.152772 5.27439 -1.97234
LeftUpLeg  -0.455979 15.1277 5.31485
LeftLeg  36.9981 3.86665 3.50387
LeftFoot  -20.5122 0.00932667 -1.42564
LeftToes  -2.53752e-010 -2.07034e-011 -2.70101e-011
395
root  -77.9046 37.9948 3.68548 169.016 -53.618 175.929
RightUpLeg  -13.6503 -14.7721 -4.70871
RightLeg  54.0957 -1.81793 -3.10135
RightFoot  -8.86572 -0.143909 3.97183
RightToes  1.45519e-009 0 -3.6325e-017
Spine  17.0832 -0.215561 -6.59346
Spine1  13.4986 0.121149 -4.65573
HEad  -41.3797 -1.58651 -16.0618
LeftShoulder1  0.52344 1.50566 -19.684
LeftArm  -5.26391 -12.928 -44.1176
LeftForeArm  30.9306 -6.53935 -8.31168
LeftHand  0.0309035 11.6046 1.67975
RightShoulder  -0.374725 -4.70308 24.1971
RightArm  21.0623 -3.48881 53.9278
RightForeArm  7.12716 19.8293 4.86307
RightHand  -0.137756 5.32551 -1.796
LeftUpLeg  0.668045 16.6333 5.53889
LeftLeg  39.1427 4.6222 4.41332
LeftFoot  -22.134 -0.0289763 -1.71884
LeftToes  -2.53752e-010 -2.07034e-011 -2.70101e-011
396
root  -78.2485 37.7195 3.77695 168.466 -50.9168 175.844
RightUpLeg  -15.0749 -18.9598 -3.15941
RightLeg  52.452 -2.16871 -3.40441
RightFoot  -9.97804 -0.122175 4.4383
RightToes  1.45519e-009 0 -3.6325e-017
Spine  17.3417 -0.155331 -6.97724
Spine1  13.3941 -0.257053 -3.18166
HEad  -42.123 -0.889563 -17.2502
LeftShoulder1  0.49847 1.60747 -19.8527
LeftArm  -4.86337 -15.5886 -44.129
LeftForeArm  27.7025 -8.9477 -8.01611
LeftHand  0.00188168 11.3239 1.22609
RightShoulder  -0.264303 -4.37008 23.3277
RightArm  22.2946 -3.53505 55.5275
RightForeArm  7.63314 21.173 4.62822
RightHand  -0.0788624 4.57481 -1.21253
LeftUpLeg  1.22921 18.0142 5.66619
LeftLeg  41.283 5.51678 5.56379
LeftFoot  -23.4666 -0.100833 -2.26402
LeftToes  -2.53752e-010 -2.07034e-011 -2.70101e-011
